<mxfile host="65bd71144e">
    <diagram id="jevHre5aa1OX3tdLEInC" name="Page-1">
        <mxGraphModel dx="667" dy="784" grid="0" gridSize="10" guides="1" tooltips="1" connect="1" arrows="1" fold="1" page="1" pageScale="1" pageWidth="1100" pageHeight="850" background="#ffffff" math="0" shadow="0">
            <root>
                <mxCell id="0"/>
                <mxCell id="1" parent="0"/>
                <mxCell id="17" value="User" style="swimlane;fontStyle=1;align=center;verticalAlign=top;childLayout=stackLayout;horizontal=1;startSize=26;horizontalStack=0;resizeParent=1;resizeParentMax=0;resizeLast=0;collapsible=1;marginBottom=0;strokeColor=#0d0d0d;fontColor=#000000;fillColor=#b5b5b5;" parent="1" vertex="1">
                    <mxGeometry x="162" y="332" width="159" height="108" as="geometry"/>
                </mxCell>
                <mxCell id="18" value="- username: string&#10;- password: string" style="text;strokeColor=none;fillColor=none;align=left;verticalAlign=top;spacingLeft=4;spacingRight=4;overflow=hidden;rotatable=0;points=[[0,0.5],[1,0.5]];portConstraint=eastwest;fontColor=#000000;" parent="17" vertex="1">
                    <mxGeometry y="26" width="159" height="42" as="geometry"/>
                </mxCell>
                <mxCell id="19" value="" style="line;strokeWidth=1;fillColor=none;align=left;verticalAlign=middle;spacingTop=-1;spacingLeft=3;spacingRight=3;rotatable=0;labelPosition=right;points=[];portConstraint=eastwest;strokeColor=inherit;fontColor=#000000;" parent="17" vertex="1">
                    <mxGeometry y="68" width="159" height="8" as="geometry"/>
                </mxCell>
                <mxCell id="20" value="+ authentication(): boolean" style="text;strokeColor=none;fillColor=none;align=left;verticalAlign=top;spacingLeft=4;spacingRight=4;overflow=hidden;rotatable=0;points=[[0,0.5],[1,0.5]];portConstraint=eastwest;fontColor=#000000;" parent="17" vertex="1">
                    <mxGeometry y="76" width="159" height="32" as="geometry"/>
                </mxCell>
                <mxCell id="21" value="Student" style="swimlane;fontStyle=1;align=center;verticalAlign=top;childLayout=stackLayout;horizontal=1;startSize=26;horizontalStack=0;resizeParent=1;resizeParentMax=0;resizeLast=0;collapsible=1;marginBottom=0;strokeColor=#0d0d0d;fontColor=#000000;fillColor=#b5b5b5;" parent="1" vertex="1">
                    <mxGeometry x="272" y="127" width="176" height="116" as="geometry"/>
                </mxCell>
                <mxCell id="22" value="- courses: Cources[]" style="text;strokeColor=none;fillColor=none;align=left;verticalAlign=top;spacingLeft=4;spacingRight=4;overflow=hidden;rotatable=0;points=[[0,0.5],[1,0.5]];portConstraint=eastwest;fontColor=#000000;" parent="21" vertex="1">
                    <mxGeometry y="26" width="176" height="27" as="geometry"/>
                </mxCell>
                <mxCell id="23" value="" style="line;strokeWidth=1;fillColor=none;align=left;verticalAlign=middle;spacingTop=-1;spacingLeft=3;spacingRight=3;rotatable=0;labelPosition=right;points=[];portConstraint=eastwest;strokeColor=inherit;fontColor=#000000;" parent="21" vertex="1">
                    <mxGeometry y="53" width="176" height="8" as="geometry"/>
                </mxCell>
                <mxCell id="24" value="+ submitFeedback(): void&#10;+ viewFeedback(): Feedback[]&#10;+ selectCources(): void" style="text;strokeColor=none;fillColor=none;align=left;verticalAlign=top;spacingLeft=4;spacingRight=4;overflow=hidden;rotatable=0;points=[[0,0.5],[1,0.5]];portConstraint=eastwest;fontColor=#000000;" parent="21" vertex="1">
                    <mxGeometry y="61" width="176" height="55" as="geometry"/>
                </mxCell>
                <mxCell id="25" value="Faculty" style="swimlane;fontStyle=1;align=center;verticalAlign=top;childLayout=stackLayout;horizontal=1;startSize=26;horizontalStack=0;resizeParent=1;resizeParentMax=0;resizeLast=0;collapsible=1;marginBottom=0;strokeColor=#0d0d0d;fontColor=#000000;fillColor=#b5b5b5;" parent="1" vertex="1">
                    <mxGeometry x="448" y="273" width="177" height="104" as="geometry"/>
                </mxCell>
                <mxCell id="26" value="- department: string" style="text;strokeColor=none;fillColor=none;align=left;verticalAlign=top;spacingLeft=4;spacingRight=4;overflow=hidden;rotatable=0;points=[[0,0.5],[1,0.5]];portConstraint=eastwest;fontColor=#000000;" parent="25" vertex="1">
                    <mxGeometry y="26" width="177" height="28" as="geometry"/>
                </mxCell>
                <mxCell id="87" value="" style="endArrow=block;endSize=16;endFill=0;html=1;entryX=1.019;entryY=0.333;entryDx=0;entryDy=0;entryPerimeter=0;strokeColor=#000000;" edge="1" parent="25" target="18">
                    <mxGeometry x="0.249" y="-19" width="160" relative="1" as="geometry">
                        <mxPoint y="53" as="sourcePoint"/>
                        <mxPoint x="160" y="53" as="targetPoint"/>
                        <mxPoint as="offset"/>
                    </mxGeometry>
                </mxCell>
                <mxCell id="27" value="" style="line;strokeWidth=1;fillColor=none;align=left;verticalAlign=middle;spacingTop=-1;spacingLeft=3;spacingRight=3;rotatable=0;labelPosition=right;points=[];portConstraint=eastwest;strokeColor=inherit;fontColor=#000000;" parent="25" vertex="1">
                    <mxGeometry y="54" width="177" height="8" as="geometry"/>
                </mxCell>
                <mxCell id="28" value="+ viewFeedback(): Feedback[]&#10;+ respondToFeedback(): void" style="text;strokeColor=none;fillColor=none;align=left;verticalAlign=top;spacingLeft=4;spacingRight=4;overflow=hidden;rotatable=0;points=[[0,0.5],[1,0.5]];portConstraint=eastwest;fontColor=#000000;" parent="25" vertex="1">
                    <mxGeometry y="62" width="177" height="42" as="geometry"/>
                </mxCell>
                <mxCell id="29" value="Administrator" style="swimlane;fontStyle=1;align=center;verticalAlign=top;childLayout=stackLayout;horizontal=1;startSize=26;horizontalStack=0;resizeParent=1;resizeParentMax=0;resizeLast=0;collapsible=1;marginBottom=0;strokeColor=#0d0d0d;fontColor=#000000;fillColor=#b5b5b5;" parent="1" vertex="1">
                    <mxGeometry x="257" y="583" width="151" height="116" as="geometry"/>
                </mxCell>
                <mxCell id="30" value="- accessLevel: int" style="text;strokeColor=none;fillColor=none;align=left;verticalAlign=top;spacingLeft=4;spacingRight=4;overflow=hidden;rotatable=0;points=[[0,0.5],[1,0.5]];portConstraint=eastwest;fontColor=#000000;" parent="29" vertex="1">
                    <mxGeometry y="26" width="151" height="27" as="geometry"/>
                </mxCell>
                <mxCell id="31" value="" style="line;strokeWidth=1;fillColor=none;align=left;verticalAlign=middle;spacingTop=-1;spacingLeft=3;spacingRight=3;rotatable=0;labelPosition=right;points=[];portConstraint=eastwest;strokeColor=inherit;fontColor=#000000;" parent="29" vertex="1">
                    <mxGeometry y="53" width="151" height="8" as="geometry"/>
                </mxCell>
                <mxCell id="32" value="+ manageUsers(): void&#10;+ generateReports(): void&#10;+ configureSystem(): void" style="text;strokeColor=none;fillColor=none;align=left;verticalAlign=top;spacingLeft=4;spacingRight=4;overflow=hidden;rotatable=0;points=[[0,0.5],[1,0.5]];portConstraint=eastwest;fontColor=#000000;" parent="29" vertex="1">
                    <mxGeometry y="61" width="151" height="55" as="geometry"/>
                </mxCell>
                <mxCell id="33" value="Course" style="swimlane;fontStyle=1;align=center;verticalAlign=top;childLayout=stackLayout;horizontal=1;startSize=26;horizontalStack=0;resizeParent=1;resizeParentMax=0;resizeLast=0;collapsible=1;marginBottom=0;strokeColor=#0d0d0d;fontColor=#000000;fillColor=#b5b5b5;" parent="1" vertex="1">
                    <mxGeometry x="537" y="68" width="166" height="103" as="geometry"/>
                </mxCell>
                <mxCell id="34" value="- courseld: string" style="text;strokeColor=none;fillColor=none;align=left;verticalAlign=top;spacingLeft=4;spacingRight=4;overflow=hidden;rotatable=0;points=[[0,0.5],[1,0.5]];portConstraint=eastwest;fontColor=#000000;" parent="33" vertex="1">
                    <mxGeometry y="26" width="166" height="27" as="geometry"/>
                </mxCell>
                <mxCell id="35" value="" style="line;strokeWidth=1;fillColor=none;align=left;verticalAlign=middle;spacingTop=-1;spacingLeft=3;spacingRight=3;rotatable=0;labelPosition=right;points=[];portConstraint=eastwest;strokeColor=inherit;fontColor=#000000;" parent="33" vertex="1">
                    <mxGeometry y="53" width="166" height="8" as="geometry"/>
                </mxCell>
                <mxCell id="36" value="+ getFeedback(): Feedback[]&#10;+ getAverageRating(): float" style="text;strokeColor=none;fillColor=none;align=left;verticalAlign=top;spacingLeft=4;spacingRight=4;overflow=hidden;rotatable=0;points=[[0,0.5],[1,0.5]];portConstraint=eastwest;fontColor=#000000;" parent="33" vertex="1">
                    <mxGeometry y="61" width="166" height="42" as="geometry"/>
                </mxCell>
                <mxCell id="37" value="Feedback" style="swimlane;fontStyle=1;align=center;verticalAlign=top;childLayout=stackLayout;horizontal=1;startSize=26;horizontalStack=0;resizeParent=1;resizeParentMax=0;resizeLast=0;collapsible=1;marginBottom=0;strokeColor=#0d0d0d;fontColor=#000000;fillColor=#b5b5b5;" parent="1" vertex="1">
                    <mxGeometry x="689" y="260" width="135" height="101" as="geometry"/>
                </mxCell>
                <mxCell id="38" value="- feedbackId: string" style="text;strokeColor=none;fillColor=none;align=left;verticalAlign=top;spacingLeft=4;spacingRight=4;overflow=hidden;rotatable=0;points=[[0,0.5],[1,0.5]];portConstraint=eastwest;fontColor=#000000;" parent="37" vertex="1">
                    <mxGeometry y="26" width="135" height="27" as="geometry"/>
                </mxCell>
                <mxCell id="39" value="" style="line;strokeWidth=1;fillColor=none;align=left;verticalAlign=middle;spacingTop=-1;spacingLeft=3;spacingRight=3;rotatable=0;labelPosition=right;points=[];portConstraint=eastwest;strokeColor=inherit;fontColor=#000000;" parent="37" vertex="1">
                    <mxGeometry y="53" width="135" height="8" as="geometry"/>
                </mxCell>
                <mxCell id="40" value="+ getDetails(): string&#10;+ setResponse(): void" style="text;strokeColor=none;fillColor=none;align=left;verticalAlign=top;spacingLeft=4;spacingRight=4;overflow=hidden;rotatable=0;points=[[0,0.5],[1,0.5]];portConstraint=eastwest;fontColor=#000000;" parent="37" vertex="1">
                    <mxGeometry y="61" width="135" height="40" as="geometry"/>
                </mxCell>
                <mxCell id="41" value="Notification" style="swimlane;fontStyle=1;align=center;verticalAlign=top;childLayout=stackLayout;horizontal=1;startSize=26;horizontalStack=0;resizeParent=1;resizeParentMax=0;resizeLast=0;collapsible=1;marginBottom=0;strokeColor=#0d0d0d;fontColor=#000000;fillColor=#b5b5b5;" parent="1" vertex="1">
                    <mxGeometry x="41" y="184" width="144" height="97" as="geometry"/>
                </mxCell>
                <mxCell id="42" value="- message: string&#10;- recipient: User[]" style="text;strokeColor=none;fillColor=none;align=left;verticalAlign=top;spacingLeft=4;spacingRight=4;overflow=hidden;rotatable=0;points=[[0,0.5],[1,0.5]];portConstraint=eastwest;fontColor=#000000;" parent="41" vertex="1">
                    <mxGeometry y="26" width="144" height="35" as="geometry"/>
                </mxCell>
                <mxCell id="43" value="" style="line;strokeWidth=1;fillColor=none;align=left;verticalAlign=middle;spacingTop=-1;spacingLeft=3;spacingRight=3;rotatable=0;labelPosition=right;points=[];portConstraint=eastwest;strokeColor=inherit;fontColor=#000000;" parent="41" vertex="1">
                    <mxGeometry y="61" width="144" height="8" as="geometry"/>
                </mxCell>
                <mxCell id="44" value="+ sendNotification(): void" style="text;strokeColor=none;fillColor=none;align=left;verticalAlign=top;spacingLeft=4;spacingRight=4;overflow=hidden;rotatable=0;points=[[0,0.5],[1,0.5]];portConstraint=eastwest;fontColor=#000000;" parent="41" vertex="1">
                    <mxGeometry y="69" width="144" height="28" as="geometry"/>
                </mxCell>
                <mxCell id="45" value="Database" style="swimlane;fontStyle=1;align=center;verticalAlign=top;childLayout=stackLayout;horizontal=1;startSize=26;horizontalStack=0;resizeParent=1;resizeParentMax=0;resizeLast=0;collapsible=1;marginBottom=0;strokeColor=#0d0d0d;fontColor=#000000;fillColor=#b5b5b5;" parent="1" vertex="1">
                    <mxGeometry x="869" y="119" width="190" height="99" as="geometry"/>
                </mxCell>
                <mxCell id="46" value="- feedbackData: Feedback[]" style="text;strokeColor=none;fillColor=none;align=left;verticalAlign=top;spacingLeft=4;spacingRight=4;overflow=hidden;rotatable=0;points=[[0,0.5],[1,0.5]];portConstraint=eastwest;fontColor=#000000;" parent="45" vertex="1">
                    <mxGeometry y="26" width="190" height="27" as="geometry"/>
                </mxCell>
                <mxCell id="47" value="" style="line;strokeWidth=1;fillColor=none;align=left;verticalAlign=middle;spacingTop=-1;spacingLeft=3;spacingRight=3;rotatable=0;labelPosition=right;points=[];portConstraint=eastwest;strokeColor=inherit;fontColor=#000000;" parent="45" vertex="1">
                    <mxGeometry y="53" width="190" height="8" as="geometry"/>
                </mxCell>
                <mxCell id="48" value="+ saveFeedback(): void&#10;+ retrieveFeedback(): Feedback[]" style="text;strokeColor=none;fillColor=none;align=left;verticalAlign=top;spacingLeft=4;spacingRight=4;overflow=hidden;rotatable=0;points=[[0,0.5],[1,0.5]];portConstraint=eastwest;fontColor=#000000;" parent="45" vertex="1">
                    <mxGeometry y="61" width="190" height="38" as="geometry"/>
                </mxCell>
                <mxCell id="49" value="Reporting" style="swimlane;fontStyle=1;align=center;verticalAlign=top;childLayout=stackLayout;horizontal=1;startSize=26;horizontalStack=0;resizeParent=1;resizeParentMax=0;resizeLast=0;collapsible=1;marginBottom=0;strokeColor=#0d0d0d;fontColor=#000000;fillColor=#b5b5b5;" parent="1" vertex="1">
                    <mxGeometry x="439" y="468" width="195" height="83" as="geometry"/>
                </mxCell>
                <mxCell id="50" value="- reportData: Report[]" style="text;strokeColor=none;fillColor=none;align=left;verticalAlign=top;spacingLeft=4;spacingRight=4;overflow=hidden;rotatable=0;points=[[0,0.5],[1,0.5]];portConstraint=eastwest;fontColor=#000000;" parent="49" vertex="1">
                    <mxGeometry y="26" width="195" height="27" as="geometry"/>
                </mxCell>
                <mxCell id="51" value="" style="line;strokeWidth=1;fillColor=none;align=left;verticalAlign=middle;spacingTop=-1;spacingLeft=3;spacingRight=3;rotatable=0;labelPosition=right;points=[];portConstraint=eastwest;strokeColor=inherit;fontColor=#000000;" parent="49" vertex="1">
                    <mxGeometry y="53" width="195" height="8" as="geometry"/>
                </mxCell>
                <mxCell id="52" value="+ generateStatisticalReport(): void" style="text;strokeColor=none;fillColor=none;align=left;verticalAlign=top;spacingLeft=4;spacingRight=4;overflow=hidden;rotatable=0;points=[[0,0.5],[1,0.5]];portConstraint=eastwest;fontColor=#000000;" parent="49" vertex="1">
                    <mxGeometry y="61" width="195" height="22" as="geometry"/>
                </mxCell>
                <mxCell id="53" value="System" style="swimlane;fontStyle=1;align=center;verticalAlign=top;childLayout=stackLayout;horizontal=1;startSize=26;horizontalStack=0;resizeParent=1;resizeParentMax=0;resizeLast=0;collapsible=1;marginBottom=0;strokeColor=#0d0d0d;fontColor=#000000;fillColor=#b5b5b5;" parent="1" vertex="1">
                    <mxGeometry x="820" y="502" width="184" height="109" as="geometry"/>
                </mxCell>
                <mxCell id="54" value="- database: Database&#10;- notification: Notification" style="text;strokeColor=none;fillColor=none;align=left;verticalAlign=top;spacingLeft=4;spacingRight=4;overflow=hidden;rotatable=0;points=[[0,0.5],[1,0.5]];portConstraint=eastwest;fontColor=#000000;" parent="53" vertex="1">
                    <mxGeometry y="26" width="184" height="35" as="geometry"/>
                </mxCell>
                <mxCell id="55" value="" style="line;strokeWidth=1;fillColor=none;align=left;verticalAlign=middle;spacingTop=-1;spacingLeft=3;spacingRight=3;rotatable=0;labelPosition=right;points=[];portConstraint=eastwest;strokeColor=inherit;fontColor=#000000;" parent="53" vertex="1">
                    <mxGeometry y="61" width="184" height="8" as="geometry"/>
                </mxCell>
                <mxCell id="56" value="+ authenticationUser(): boolean&#10;+ notifyUser(): void" style="text;strokeColor=none;fillColor=none;align=left;verticalAlign=top;spacingLeft=4;spacingRight=4;overflow=hidden;rotatable=0;points=[[0,0.5],[1,0.5]];portConstraint=eastwest;fontColor=#000000;" parent="53" vertex="1">
                    <mxGeometry y="69" width="184" height="40" as="geometry"/>
                </mxCell>
                <mxCell id="63" style="edgeStyle=none;html=1;exitX=-0.011;exitY=0.357;exitDx=0;exitDy=0;entryX=1;entryY=0.833;entryDx=0;entryDy=0;strokeColor=#000000;fontColor=#000000;exitPerimeter=0;entryPerimeter=0;" parent="1" source="28" target="18" edge="1">
                    <mxGeometry relative="1" as="geometry"/>
                </mxCell>
                <mxCell id="64" style="edgeStyle=none;html=1;exitX=0.443;exitY=1.073;exitDx=0;exitDy=0;entryX=0.604;entryY=0.009;entryDx=0;entryDy=0;strokeColor=#000000;fontColor=#000000;exitPerimeter=0;entryPerimeter=0;" parent="1" source="24" target="17" edge="1">
                    <mxGeometry relative="1" as="geometry"/>
                </mxCell>
                <mxCell id="66" value="" style="endArrow=diamondThin;endFill=0;endSize=24;html=1;strokeColor=#000000;fontColor=#000000;entryX=-0.01;entryY=0.333;entryDx=0;entryDy=0;entryPerimeter=0;" parent="1" target="36" edge="1">
                    <mxGeometry width="160" relative="1" as="geometry">
                        <mxPoint x="448" y="181.60000000000002" as="sourcePoint"/>
                        <mxPoint x="543" y="124" as="targetPoint"/>
                    </mxGeometry>
                </mxCell>
                <mxCell id="76" value="" style="endArrow=block;startArrow=block;endFill=1;startFill=1;html=1;strokeColor=#000000;fontColor=#000000;entryX=0;entryY=0;entryDx=0;entryDy=0;exitX=1.001;exitY=0.058;exitDx=0;exitDy=0;exitPerimeter=0;" parent="1" source="24" target="37" edge="1">
                    <mxGeometry width="160" relative="1" as="geometry">
                        <mxPoint x="448" y="198" as="sourcePoint"/>
                        <mxPoint x="608" y="198" as="targetPoint"/>
                    </mxGeometry>
                </mxCell>
                <mxCell id="78" value="" style="endArrow=block;startArrow=block;endFill=1;startFill=1;html=1;strokeColor=#000000;fontColor=#000000;entryX=-0.021;entryY=0.733;entryDx=0;entryDy=0;exitX=1.016;exitY=-0.057;exitDx=0;exitDy=0;exitPerimeter=0;entryPerimeter=0;" parent="1" source="28" target="38" edge="1">
                    <mxGeometry width="160" relative="1" as="geometry">
                        <mxPoint x="686.9959999999999" y="356.99999999999994" as="sourcePoint"/>
                        <mxPoint x="977.8199999999999" y="412.81" as="targetPoint"/>
                    </mxGeometry>
                </mxCell>
                <mxCell id="79" value="" style="endArrow=block;startArrow=block;endFill=1;startFill=1;html=1;strokeColor=#000000;fontColor=#000000;entryX=0.618;entryY=1.056;entryDx=0;entryDy=0;exitX=0.25;exitY=0;exitDx=0;exitDy=0;entryPerimeter=0;" parent="1" source="29" target="20" edge="1">
                    <mxGeometry width="160" relative="1" as="geometry">
                        <mxPoint x="310.0019999999999" y="474.90599999999995" as="sourcePoint"/>
                        <mxPoint x="388.3350000000002" y="446.0909999999999" as="targetPoint"/>
                    </mxGeometry>
                </mxCell>
                <mxCell id="80" value="" style="endArrow=block;startArrow=block;endFill=1;startFill=1;html=1;strokeColor=#000000;fontColor=#000000;entryX=-0.01;entryY=1.091;entryDx=0;entryDy=0;exitX=0.962;exitY=0.002;exitDx=0;exitDy=0;exitPerimeter=0;entryPerimeter=0;" parent="1" source="29" target="52" edge="1">
                    <mxGeometry width="160" relative="1" as="geometry">
                        <mxPoint x="433.00199999999984" y="511.996" as="sourcePoint"/>
                        <mxPoint x="511.33500000000015" y="483.1809999999999" as="targetPoint"/>
                    </mxGeometry>
                </mxCell>
                <mxCell id="81" value="" style="endArrow=block;startArrow=block;endFill=1;startFill=1;html=1;strokeColor=#000000;fontColor=#000000;entryX=0;entryY=0.5;entryDx=0;entryDy=0;exitX=1;exitY=0.5;exitDx=0;exitDy=0;" parent="1" source="30" target="54" edge="1">
                    <mxGeometry width="160" relative="1" as="geometry">
                        <mxPoint x="576.6619999999999" y="584.406" as="sourcePoint"/>
                        <mxPoint x="654.9950000000002" y="555.5909999999999" as="targetPoint"/>
                    </mxGeometry>
                </mxCell>
                <mxCell id="82" value="" style="endArrow=block;startArrow=block;endFill=1;startFill=1;html=1;strokeColor=#000000;fontColor=#000000;entryX=-0.013;entryY=0.237;entryDx=0;entryDy=0;exitX=1.007;exitY=0.763;exitDx=0;exitDy=0;exitPerimeter=0;entryPerimeter=0;" parent="1" source="34" target="46" edge="1">
                    <mxGeometry width="160" relative="1" as="geometry">
                        <mxPoint x="730.0019999999998" y="123.99599999999998" as="sourcePoint"/>
                        <mxPoint x="808.3350000000002" y="95.18099999999993" as="targetPoint"/>
                    </mxGeometry>
                </mxCell>
                <mxCell id="83" value="" style="endArrow=block;startArrow=block;endFill=1;startFill=1;html=1;strokeColor=#000000;fontColor=#000000;entryX=0;entryY=0;entryDx=0;entryDy=0;exitX=0.639;exitY=1.143;exitDx=0;exitDy=0;exitPerimeter=0;" parent="1" source="44" target="17" edge="1">
                    <mxGeometry width="160" relative="1" as="geometry">
                        <mxPoint x="59.00199999999984" y="366.816" as="sourcePoint"/>
                        <mxPoint x="137.33500000000015" y="338.0009999999999" as="targetPoint"/>
                    </mxGeometry>
                </mxCell>
                <mxCell id="84" value="" style="endArrow=open;endSize=12;dashed=1;html=1;strokeColor=#000000;fontColor=#000000;exitX=0.5;exitY=0;exitDx=0;exitDy=0;entryX=0.989;entryY=1.069;entryDx=0;entryDy=0;entryPerimeter=0;" parent="1" source="37" target="36" edge="1">
                    <mxGeometry width="160" relative="1" as="geometry">
                        <mxPoint x="734" y="245" as="sourcePoint"/>
                        <mxPoint x="894" y="245" as="targetPoint"/>
                    </mxGeometry>
                </mxCell>
                <mxCell id="85" value="" style="endArrow=open;endSize=12;dashed=1;html=1;strokeColor=#000000;fontColor=#000000;exitX=1;exitY=0;exitDx=0;exitDy=0;entryX=0.5;entryY=1;entryDx=0;entryDy=0;" parent="1" source="49" target="37" edge="1">
                    <mxGeometry width="160" relative="1" as="geometry">
                        <mxPoint x="640.33" y="463.1" as="sourcePoint"/>
                        <mxPoint x="585.004" y="376.99799999999993" as="targetPoint"/>
                    </mxGeometry>
                </mxCell>
                <mxCell id="86" value="" style="endArrow=open;endSize=12;dashed=1;html=1;strokeColor=#000000;fontColor=#000000;exitX=0.5;exitY=0;exitDx=0;exitDy=0;" parent="1" source="53" target="48" edge="1">
                    <mxGeometry width="160" relative="1" as="geometry">
                        <mxPoint x="776.5" y="280" as="sourcePoint"/>
                        <mxPoint x="721.174" y="193.8979999999999" as="targetPoint"/>
                    </mxGeometry>
                </mxCell>
                <mxCell id="88" value="" style="endArrow=block;endSize=16;endFill=0;html=1;entryX=0.434;entryY=0;entryDx=0;entryDy=0;entryPerimeter=0;strokeColor=#000000;exitX=0.307;exitY=1;exitDx=0;exitDy=0;exitPerimeter=0;" edge="1" parent="1" source="24" target="17">
                    <mxGeometry width="160" relative="1" as="geometry">
                        <mxPoint x="329.98" y="245" as="sourcePoint"/>
                        <mxPoint x="206.00099999999995" y="290.9860000000001" as="targetPoint"/>
                    </mxGeometry>
                </mxCell>
                <mxCell id="89" value="" style="endArrow=block;endSize=16;endFill=0;html=1;entryX=0.679;entryY=1.063;entryDx=0;entryDy=0;entryPerimeter=0;strokeColor=#000000;exitX=0.298;exitY=-0.026;exitDx=0;exitDy=0;exitPerimeter=0;" edge="1" parent="1" source="29" target="20">
                    <mxGeometry width="160" relative="1" as="geometry">
                        <mxPoint x="400.49" y="456.01" as="sourcePoint"/>
                        <mxPoint x="276.51099999999997" y="501.9960000000001" as="targetPoint"/>
                    </mxGeometry>
                </mxCell>
                <mxCell id="90" value="" style="endArrow=diamondThin;endFill=0;endSize=24;html=1;strokeColor=#000000;fontColor=#000000;entryX=0.25;entryY=0;entryDx=0;entryDy=0;exitX=0.825;exitY=1.024;exitDx=0;exitDy=0;exitPerimeter=0;" edge="1" parent="1" source="36" target="37">
                    <mxGeometry width="160" relative="1" as="geometry">
                        <mxPoint x="653" y="213.61" as="sourcePoint"/>
                        <mxPoint x="740.3399999999999" y="174.99599999999998" as="targetPoint"/>
                    </mxGeometry>
                </mxCell>
            </root>
        </mxGraphModel>
    </diagram>
</mxfile>